<svg width="20" height="21" viewBox="0 0 20 21" fill="none" xmlns="http://www.w3.org/2000/svg">
<path d="M0.625 4.71923H10.8013C11.082 5.85337 12.1079 6.69685 13.3276 6.69685C14.5472 6.69685 15.5732 5.85337 15.8539 4.71923H19.375C19.7202 4.71923 20 4.43939 20 4.09423C20 3.74908 19.7202 3.46923 19.375 3.46923H15.8538C15.5732 2.33509 14.5472 1.49158 13.3275 1.49158C12.1079 1.49158 11.0819 2.33509 10.8012 3.46923H0.625C0.279844 3.46923 0 3.74908 0 4.09423C0 4.43939 0.279844 4.71923 0.625 4.71923ZM13.3276 2.74158C14.0734 2.74158 14.6802 3.34837 14.6802 4.09419C14.6802 4.84005 14.0734 5.44685 13.3276 5.44685C12.5817 5.44685 11.9749 4.84005 11.9749 4.09419C11.9749 3.34837 12.5817 2.74158 13.3276 2.74158ZM0.625 10.125H4.14617C4.42688 11.2592 5.45277 12.1026 6.67246 12.1026C7.89215 12.1026 8.91805 11.2592 9.19875 10.125H19.375C19.7202 10.125 20 9.84517 20 9.50001C20 9.15486 19.7202 8.87501 19.375 8.87501H9.19871C8.91801 7.74087 7.89211 6.89736 6.67242 6.89736C5.45273 6.89736 4.42684 7.74087 4.14613 8.87501H0.625C0.279844 8.87501 0 9.15486 0 9.50001C0 9.84517 0.279805 10.125 0.625 10.125ZM6.67242 8.14736C7.41828 8.14736 8.02508 8.75416 8.02508 9.50001C8.02508 10.2458 7.41828 10.8526 6.67242 10.8526C5.92656 10.8526 5.31977 10.2458 5.31977 9.50001C5.31977 8.75416 5.92656 8.14736 6.67242 8.14736ZM19.375 14.2808H15.8538C15.5731 13.1467 14.5472 12.3031 13.3275 12.3031C12.1079 12.3031 11.082 13.1467 10.8012 14.2808H0.625C0.279844 14.2808 0 14.5606 0 14.9058C0 15.251 0.279844 15.5308 0.625 15.5308H10.8013C11.082 16.6649 12.1079 17.5085 13.3276 17.5085C14.5473 17.5085 15.5732 16.6649 15.8539 15.5308H19.375C19.7202 15.5308 20 15.251 20 14.9058C20 14.5606 19.7202 14.2808 19.375 14.2808ZM13.3276 16.2585C12.5817 16.2585 11.9749 15.6517 11.9749 14.9058C11.9749 14.1599 12.5817 13.5531 13.3276 13.5531C14.0734 13.5531 14.6802 14.1599 14.6802 14.9058C14.6802 15.6517 14.0734 16.2585 13.3276 16.2585Z" fill="#101010"/>
</svg>
