<svg width="30" height="30" viewBox="0 0 30 30" fill="none" xmlns="http://www.w3.org/2000/svg">
<path d="M10.8799 13.3734C11.4911 14.5162 12.2457 15.5763 13.1252 16.5281C14.1542 17.6045 15.3609 18.4956 16.6924 19.1625C16.7411 19.1842 16.7938 19.1954 16.8471 19.1954C16.9004 19.1954 16.9531 19.1842 17.0018 19.1625C17.1652 19.09 17.312 18.9847 17.433 18.8531C17.5718 18.7046 17.7017 18.5481 17.8221 18.3843C18.3986 17.6297 19.1064 16.6968 20.1096 17.1656L20.1705 17.1937L23.5127 19.1156H23.5408C23.7459 19.2631 23.9109 19.4597 24.0206 19.6873C24.1303 19.9149 24.1813 20.1663 24.1689 20.4187C24.1523 21.0006 23.9912 21.5692 23.7002 22.0734C23.3301 22.7034 22.7661 23.1968 22.0924 23.4797C21.4606 23.7532 20.7929 23.9348 20.1096 24.0187C19.0944 24.1668 18.0589 24.0818 17.0814 23.7703C16.0098 23.4089 14.9877 22.9144 14.0393 22.2984L13.9596 22.2468C13.4627 21.9375 12.9283 21.6093 12.4033 21.2203C10.3091 19.6382 8.55545 17.6502 7.24707 15.375C6.18301 13.4437 5.59707 11.3578 5.91582 9.36559C6.0478 8.30489 6.56899 7.33099 7.37832 6.63278C7.78658 6.31618 8.25393 6.08428 8.75298 5.95066C9.25204 5.81704 9.77274 5.7844 10.2846 5.85465C10.3542 5.86022 10.4214 5.8828 10.4802 5.92039C10.539 5.95799 10.5878 6.00946 10.6221 6.07028L12.7643 9.69372C12.9078 9.85741 13.0009 10.0591 13.0325 10.2745C13.0641 10.4898 13.0328 10.7098 12.9424 10.9078C12.7585 11.2886 12.4751 11.6125 12.1221 11.8453C12.0096 11.9437 11.8736 12.0422 11.7283 12.1453C11.2596 12.4922 10.7018 12.8953 10.8893 13.3687L10.8799 13.3734Z" fill="#101010"/>
</svg>
