<svg width="30" height="30" viewBox="0 0 30 30" fill="none" xmlns="http://www.w3.org/2000/svg">
<g clip-path="url(#clip0_217_730)">
<path d="M15 30C23.2843 30 30 23.2843 30 15C30 6.71573 23.2843 0 15 0C6.71573 0 0 6.71573 0 15C0 23.2843 6.71573 30 15 30Z" fill="white"/>
<path d="M6.59961 23.4404L7.78613 19.1044C7.05272 17.8329 6.66751 16.3905 6.66934 14.9226C6.66934 10.3107 10.4234 6.55835 15.0342 6.55835C16.1333 6.5585 17.2216 6.77522 18.2369 7.19612C19.2523 7.61701 20.1747 8.23384 20.9516 9.01136C21.7284 9.78887 22.3445 10.7118 22.7645 11.7275C23.1846 12.7432 23.4004 13.8317 23.3996 14.9308C23.3996 19.5427 19.6449 23.2957 15.0348 23.2957H15.0312C13.6347 23.2956 12.2604 22.9455 11.034 22.2773L6.59961 23.4404ZM11.2391 20.7626L11.4934 20.9132C12.5646 21.5477 13.7868 21.8825 15.0318 21.8824H15.0348C18.8668 21.8824 21.9857 18.7634 21.9875 14.9296C21.9875 13.8524 21.7373 12.7899 21.2564 11.8259C20.7756 10.862 20.0774 10.0229 19.2168 9.37496C18.3562 8.72701 17.3568 8.2879 16.2975 8.09225C15.2382 7.8966 14.1479 7.94978 13.1127 8.24758C12.0774 8.54538 11.1255 9.07967 10.3321 9.80829C9.53864 10.5369 8.92536 11.4399 8.54061 12.4461C8.15587 13.4523 8.01018 14.5341 8.11506 15.6062C8.21993 16.6783 8.57249 17.7114 9.14492 18.624L9.31016 18.8871L8.60703 21.4529L11.2391 20.7626Z" fill="#101010"/>
<path fill-rule="evenodd" clip-rule="evenodd" d="M19.249 16.9195C19.1969 16.8322 19.0574 16.7801 18.8482 16.6752C18.6391 16.5703 17.6119 16.0652 17.4203 15.9961C17.2287 15.927 17.0893 15.8912 16.9516 16.101C16.8139 16.3108 16.4119 16.7813 16.29 16.9213C16.1682 17.0613 16.0463 17.0783 15.8371 16.9734C15.6279 16.8686 14.9547 16.6483 14.1566 15.9358C13.535 15.3815 13.1154 14.6971 12.9941 14.4879C12.8729 14.2787 12.9813 14.1656 13.0855 14.0613C13.1799 13.9676 13.2947 13.817 13.399 13.6951C13.4852 13.5885 13.5556 13.4701 13.6082 13.3436C13.6359 13.2859 13.6488 13.2222 13.6457 13.1582C13.6427 13.0943 13.6237 13.0321 13.5906 12.9774C13.5385 12.8725 13.1219 11.8442 12.9461 11.4258C12.7768 11.0156 12.6039 11.0742 12.4773 11.0666C12.3508 11.059 12.216 11.0596 12.0766 11.0596C11.9707 11.0624 11.8665 11.087 11.7706 11.132C11.6747 11.177 11.5892 11.2413 11.5193 11.3209C11.3277 11.5301 10.7881 12.0358 10.7881 13.0647C10.7881 14.0936 11.5369 15.0873 11.6418 15.2268C11.7467 15.3662 13.1154 17.4774 15.2125 18.3826C15.6017 18.5505 15.9995 18.6975 16.4043 18.8233C16.8306 18.9528 17.2812 18.981 17.7203 18.9059C18.1223 18.8473 18.9572 18.4002 19.1313 17.9098C19.3053 17.4193 19.3012 17.0068 19.249 16.9195Z" fill="#101010"/>
</g>
<defs>
<clipPath id="clip0_217_730">
<rect width="30" height="30" fill="white"/>
</clipPath>
</defs>
</svg>
