<svg width="85" height="86" viewBox="0 0 85 86" fill="none" xmlns="http://www.w3.org/2000/svg">
<path d="M83.7549 28.9461C84.4427 28.9461 85 28.3888 85 27.701V20.6136C85 20.4135 84.9518 20.2163 84.8594 20.0387C84.767 19.8612 84.6332 19.7085 84.4692 19.5937C84.3053 19.4789 84.1161 19.4053 83.9177 19.3791C83.7193 19.3529 83.5175 19.375 83.3294 19.4434C77.3611 21.6137 69.9613 22.8581 62.4931 22.9474C55.3184 23.0293 48.7267 22.0081 44.4065 20.1353C44.4006 20.1327 44.3946 20.1301 44.3886 20.1277C35.6037 16.4811 26.0714 15.1671 16.0665 16.22C10.5481 16.7541 5.56717 17.8061 0.839043 19.4365C0.594104 19.521 0.381628 19.6799 0.231229 19.8908C0.0808288 20.1018 -2.37988e-06 20.3545 9.54655e-08 20.6136V65.312C-7.76033e-05 65.5104 0.0472747 65.7059 0.138109 65.8823C0.228943 66.0587 0.360628 66.2108 0.522183 66.326C0.683738 66.4411 0.870482 66.516 1.06685 66.5443C1.26321 66.5727 1.4635 66.5536 1.65103 66.4889C6.19155 64.9232 10.9854 63.9118 16.3168 63.3958C25.9106 62.3859 35.0311 63.64 43.4252 67.1222C48.0766 69.1365 54.6263 70.1314 61.5807 70.1314C69.3012 70.1314 77.5195 68.9039 84.1804 66.4821C84.4206 66.3947 84.6281 66.2355 84.7747 66.0261C84.9213 65.8168 85 65.5674 85 65.3118V33.4245C85 32.7367 84.4427 32.1794 83.7549 32.1794C83.0671 32.1794 82.5098 32.7367 82.5098 33.4245V64.4309C76.6906 66.4225 69.623 67.5607 62.4931 67.6458C55.3204 67.7333 48.7269 66.7068 44.4065 64.8337C44.4006 64.8311 44.3946 64.8285 44.3886 64.826C35.6039 61.1795 26.0716 59.8655 16.0667 60.9184C11.1865 61.3907 6.72662 62.2681 2.4904 63.5922V21.5084C6.7824 20.1026 11.313 19.1817 16.317 18.6974C25.9109 17.6872 35.0313 18.9412 43.4257 22.424C52.8175 26.4909 69.957 26.4041 82.5099 22.3559V27.7008C82.5099 27.8643 82.542 28.0263 82.6046 28.1774C82.6671 28.3284 82.7588 28.4657 82.8744 28.5814C82.99 28.697 83.1273 28.7888 83.2784 28.8513C83.4294 28.9139 83.5914 28.9461 83.7549 28.9461Z" fill="#101010"/>
<path d="M77.9443 57.0435C78.6321 57.0435 79.1895 56.4862 79.1895 55.7984V33.5442C79.1895 32.8564 78.6321 32.2991 77.9443 32.2991C75.9991 32.2991 74.3411 30.912 74.0021 29.0008C73.9455 28.683 73.7678 28.3996 73.5063 28.2102C73.2448 28.0209 72.9201 27.9404 72.6005 27.9858C61.1648 29.6158 49.4924 28.6577 42.1376 25.4846C42.1321 25.4821 42.1265 25.48 42.1207 25.4775C34.2525 22.2199 25.6876 21.0499 16.6587 22.0003L16.6263 22.0036C15.0372 22.1573 13.4765 22.3605 11.988 22.6079C11.8222 22.6354 11.6637 22.6962 11.522 22.7867C11.3804 22.8771 11.2585 22.9952 11.1637 23.134C11.0689 23.2728 11.0032 23.4293 10.9706 23.5942C10.9379 23.7591 10.9389 23.9288 10.9736 24.0933C11.0309 24.3647 11.06 24.6441 11.06 24.9242C11.06 27.132 9.26384 28.9281 7.05583 28.9281C6.89231 28.9281 6.73039 28.9603 6.57932 29.0229C6.42824 29.0854 6.29097 29.1771 6.17535 29.2928C6.05973 29.4084 5.96801 29.5457 5.90545 29.6967C5.84288 29.8478 5.81069 30.0097 5.81071 30.1732V42.0088C5.81071 42.6966 6.36803 43.2539 7.05583 43.2539C7.74363 43.2539 8.30095 42.6966 8.30095 42.0088V31.2985C11.2882 30.7161 13.5502 28.0791 13.5502 24.9242L13.55 24.8841C14.6492 24.7235 15.7522 24.5897 16.8579 24.4831L16.9253 24.4764C25.5274 23.5703 33.6821 24.6806 41.1604 27.7753C48.6768 31.0146 60.3565 32.0776 71.869 30.5981C72.6616 32.6998 74.4935 34.2433 76.6994 34.6706V54.6733C73.7121 55.2557 71.4501 57.8927 71.4501 61.0478L71.4505 61.1151C68.5118 61.557 65.481 61.7992 62.4239 61.8359C56.0359 61.9109 50.3119 61.0609 46.7171 59.5022L46.6164 59.4594C39.0973 56.3383 31.0469 54.7558 22.6885 54.7558C20.318 54.7558 17.89 54.8843 15.4821 55.1372C14.6957 55.2135 13.9111 55.3007 13.1386 55.3975C12.75 54.3584 12.1011 53.4365 11.254 52.7201C10.4069 52.0037 9.39 51.5169 8.30078 51.3062V47.822C8.30078 47.1342 7.74347 46.5769 7.05566 46.5769C6.36786 46.5769 5.81055 47.1342 5.81055 47.822V52.4324C5.81055 53.1203 6.36786 53.6776 7.05566 53.6776C9.00685 53.6776 10.6657 55.0698 11 56.9879C11.1152 57.6492 11.734 58.0992 12.3985 58.0074C13.5069 57.8535 14.6182 57.7226 15.732 57.6148C18.0637 57.3701 20.4041 57.2461 22.6882 57.2461C30.7172 57.2461 38.4466 58.7645 45.6603 61.7589L45.727 61.7873C49.476 63.4129 55.246 64.3306 61.6541 64.3306C61.9193 64.3306 62.186 64.329 62.4533 64.3258C66.0417 64.283 69.5972 63.9666 73.021 63.3855C73.1867 63.3574 73.345 63.296 73.4864 63.205C73.6278 63.114 73.7492 62.9954 73.8435 62.8562C73.9378 62.717 74.0029 62.5602 74.0349 62.3952C74.0669 62.2301 74.0652 62.0603 74.0299 61.896C73.9701 61.6173 73.94 61.333 73.94 61.048C73.9402 58.8398 75.7363 57.0435 77.9443 57.0435Z" fill="#101010"/>
<path d="M35.3112 45.8661C34.6234 45.8661 34.066 46.4234 34.066 47.1112C34.066 47.799 34.6234 48.3563 35.3112 48.3563H37.3457V50.8963C37.3457 51.5841 37.903 52.1415 38.5908 52.1415C39.2786 52.1415 39.8359 51.5841 39.8359 50.8963V48.3563H46.2431C46.9309 48.3563 47.4882 47.799 47.4882 47.1112C47.4882 46.4234 46.9309 45.8661 46.2431 45.8661H39.8359V43.4573H46.2431C48.738 43.4573 50.7679 41.4275 50.7679 38.9326C50.7679 36.4377 48.738 34.4078 46.2431 34.4078H38.5908C38.4273 34.4078 38.2654 34.44 38.1143 34.5026C37.9632 34.5651 37.8259 34.6569 37.7103 34.7725C37.5947 34.8881 37.503 35.0254 37.4404 35.1764C37.3778 35.3275 37.3457 35.4894 37.3457 35.653V40.9671H35.3112C34.6234 40.9671 34.066 41.5244 34.066 42.2122C34.066 42.9 34.6234 43.4573 35.3112 43.4573H37.3457V45.8661H35.3112ZM39.8359 36.8982H46.2431C47.3651 36.8982 48.2776 37.8108 48.2776 38.9328C48.2776 40.0547 47.3651 40.9673 46.2431 40.9673H39.8359V36.8982ZM26.764 39.1341C26.764 36.5978 24.7004 34.5342 22.164 34.5342C19.6277 34.5342 17.5641 36.5978 17.5641 39.1341C17.5641 41.6705 19.6277 43.7341 22.164 43.7341C24.7004 43.7341 26.764 41.6707 26.764 39.1341ZM20.0543 39.1341C20.0543 37.9709 21.0008 37.0244 22.164 37.0244C23.3273 37.0244 24.2738 37.9709 24.2738 39.1341C24.2738 40.2974 23.3273 41.2439 22.164 41.2439C21.0008 41.2439 20.0543 40.2974 20.0543 39.1341ZM67.2698 46.8764C67.2698 44.3401 65.2063 42.2765 62.6699 42.2765C60.1335 42.2765 58.0699 44.3401 58.0699 46.8764C58.0699 49.4128 60.1335 51.4764 62.6699 51.4764C65.2063 51.4764 67.2698 49.4128 67.2698 46.8764ZM60.5601 46.8764C60.5601 45.7132 61.5066 44.7667 62.6699 44.7667C63.8331 44.7667 64.7796 45.7132 64.7796 46.8764C64.7796 48.0397 63.8331 48.9862 62.6699 48.9862C61.5066 48.9862 60.5601 48.0397 60.5601 46.8764Z" fill="#101010"/>
</svg>
